# File created by Blade
# Date/Time:  Wed Sep 24 19:25:39 2014
# Frame Rate: 120.000 fps
#------------------------------------------------------
:FULLY-SPECIFIED
:DEGREES
3186
root -15.636807 32.211655 -5.087198 11.288271 43.759791 -5.604687
Spine -14.713714 2.378860 16.129749
Head 0.003539 -16.093033 -2.881969
LeftShoulder -11.702472 21.841734 7.924039
LeftArm 27.288600 30.137920 -70.760970
LeftForeArm 17.427915 -0.000000 52.414781
LeftHand -27.355781 -0.000000 -2.693607
LeftHandThumb1 -26.253704 0.000000 33.147579
RightShoulder -19.048714 12.445573 -33.511845
RightArm -8.980236 26.709731 44.093325
RightForeArm 31.282424 -0.000000 124.104425
RightHand -11.449620 -0.000000 1.723619
RightHandThumb1 -24.326973 -0.000000 -32.862282
LeftUpLeg -22.716261 44.249561 5.588866
LeftLeg 96.607736 -0.000000 -0.000000
LeftFoot 34.211885 22.881632 -24.818900
LeftToeBase 29.066875 -0.000000 -0.000000
RightUpLeg -14.012032 -5.240054 13.936064
RightLeg 0.939707 -0.000000 -0.000000
RightFoot -8.493940 -23.286151 -9.538921
RightToeBase -0.474186 -0.000000 0.000000
3187
root -15.637647 32.211552 -5.087087 11.345895 43.730498 -5.588723
Spine -14.705559 2.316769 16.103142
Head -0.114520 -16.060292 -2.871621
LeftShoulder -11.720655 21.764445 7.919312
LeftArm 27.358247 30.296996 -70.730123
LeftForeArm 17.342800 -0.000000 52.237166
LeftHand -27.279781 0.000000 -2.826814
LeftHandThumb1 -26.253704 0.000000 33.147579
RightShoulder -19.017600 12.467868 -33.496885
RightArm -9.010375 26.645949 44.091948
RightForeArm 31.224434 -0.000000 124.122996
RightHand -11.549359 -0.000000 1.476061
RightHandThumb1 -24.326973 -0.000000 -32.862282
LeftUpLeg -22.543356 44.166984 5.674307
LeftLeg 96.502603 -0.000000 -0.000000
LeftFoot 34.015440 23.095099 -25.093521
LeftToeBase 29.235459 -0.000000 -0.000000
RightUpLeg -14.018502 -5.191329 13.918875
RightLeg 0.861479 -0.000000 -0.000000
RightFoot -8.472904 -23.270669 -9.489056
RightToeBase -0.478145 -0.000000 0.000000
3188
root -15.637953 32.211651 -5.086848 11.412515 43.705799 -5.568687
Spine -14.714925 2.288134 16.066408
Head -0.201282 -16.050077 -2.869888
LeftShoulder -11.664805 21.730148 7.940679
LeftArm 27.460060 30.412717 -70.722410
LeftForeArm 17.333223 0.000000 52.005370
LeftHand -27.193607 -0.000000 -2.788641
LeftHandThumb1 -26.253704 0.000000 33.147579
RightShoulder -19.011055 12.445049 -33.482172
RightArm -9.023316 26.600768 44.098503
RightForeArm 31.147308 -0.000000 124.132543
RightHand -11.585434 -0.000000 1.317606
RightHandThumb1 -24.326973 -0.000000 -32.862282
LeftUpLeg -22.390456 44.093875 5.739372
LeftLeg 96.387079 -0.000000 -0.000000
LeftFoot 34.147412 22.905351 -24.854743
LeftToeBase 28.663317 -0.000000 -0.000000
RightUpLeg -14.018178 -5.126063 13.893288
RightLeg 0.766646 -0.000000 -0.000000
RightFoot -8.404881 -23.285497 -9.552536
RightToeBase -0.463637 -0.000000 0.000000
3189
root -15.638751 32.211970 -5.086661 11.474120 43.678531 -5.553575
Spine -14.723231 2.242163 16.048380
Head -0.290926 -16.018186 -2.893994
LeftShoulder -11.604664 21.666998 7.953072
LeftArm 27.494932 30.523934 -70.740474
LeftForeArm 17.226812 -0.000000 51.797284
LeftHand -27.228468 -0.000000 -2.728293
LeftHandThumb1 -26.253704 0.000000 33.147579
RightShoulder -18.974310 12.446962 -33.465069
RightArm -9.050188 26.573245 44.083812
RightForeArm 31.095098 -0.000000 124.141516
RightHand -11.649770 -0.000000 1.205021
RightHandThumb1 -24.326973 -0.000000 -32.862282
LeftUpLeg -22.232471 44.002630 5.805888
LeftLeg 96.218396 -0.000000 -0.000000
LeftFoot 34.094555 23.045653 -24.911080
LeftToeBase 28.860160 -0.000000 -0.000000
RightUpLeg -14.018500 -5.056383 13.872405
RightLeg 0.670237 -0.000000 -0.000000
RightFoot -8.344417 -23.299543 -9.547513
RightToeBase -0.509041 -0.000000 0.000000
3190
root -15.640193 32.210788 -5.084972 11.513761 43.658722 -5.552422
Spine -14.719558 2.171756 16.052356
Head -0.374066 -15.953933 -2.932726
LeftShoulder -11.595503 21.638310 7.948484
LeftArm 27.609185 30.690396 -70.686810
LeftForeArm 17.149526 -0.000000 51.555126
LeftHand -27.141264 -0.000000 -2.742451
LeftHandThumb1 -26.253704 0.000000 33.147579
RightShoulder -18.924270 12.465788 -33.462357
RightArm -9.073236 26.559554 44.091371
RightForeArm 31.046696 -0.000000 124.141904
RightHand -11.722673 0.000000 1.097917
RightHandThumb1 -24.326973 -0.000000 -32.862282
LeftUpLeg -22.052299 43.905897 5.910122
LeftLeg 96.044192 -0.000000 -0.000000
LeftFoot 34.100746 23.131588 -24.965552
LeftToeBase 28.695432 -0.000000 -0.000000
RightUpLeg -14.003829 -5.006936 13.870247
RightLeg 0.559829 -0.000000 -0.000000
RightFoot -8.287256 -23.311574 -9.553827
RightToeBase -0.509222 -0.000000 0.000000
3191
root -15.641134 32.210839 -5.084464 11.562660 43.649640 -5.549046
Spine -14.730997 2.156888 16.038868
Head -0.440520 -15.950115 -2.947288
LeftShoulder -11.528627 21.590969 7.974708
LeftArm 27.734623 30.867850 -70.646784
LeftForeArm 17.111579 -0.000000 51.282368
LeftHand -27.139934 -0.000000 -2.838729
LeftHandThumb1 -26.253704 0.000000 33.147579
RightShoulder -18.921362 12.455765 -33.439338
RightArm -9.092827 26.568222 44.055479
RightForeArm 31.055699 -0.000000 124.144805
RightHand -11.833749 0.000000 0.979356
RightHandThumb1 -24.326973 -0.000000 -32.862282
LeftUpLeg -21.896427 43.792268 5.992520
LeftLeg 95.871508 -0.000000 -0.000000
LeftFoot 33.900956 23.217653 -25.097879
LeftToeBase 29.157806 -0.000000 -0.000000
RightUpLeg -13.998312 -4.967882 13.865362
RightLeg 0.457683 -0.000000 -0.000000
RightFoot -8.210459 -23.305267 -9.619404
RightToeBase -0.499132 -0.000000 0.000000
3192
root -15.642822 32.211217 -5.085321 11.628511 43.647612 -5.526696
Spine -14.750234 2.107115 16.015041
Head -0.496207 -15.928480 -2.957967
LeftShoulder -11.468876 21.535019 7.997064
LeftArm 27.831801 31.051316 -70.619118
LeftForeArm 17.039974 0.000000 51.015991
LeftHand -27.179465 -0.000000 -2.687544
LeftHandThumb1 -26.253704 0.000000 33.147579
RightShoulder -18.895142 12.454608 -33.411821
RightArm -9.092481 26.579238 44.035140
RightForeArm 30.892781 0.000000 124.107067
RightHand -11.879757 -0.000000 0.949794
RightHandThumb1 -24.326973 -0.000000 -32.862282
LeftUpLeg -21.769929 43.656411 6.033883
LeftLeg 95.664688 -0.000000 -0.000000
LeftFoot 33.990588 23.175068 -24.873591
LeftToeBase 29.309478 -0.000000 -0.000000
RightUpLeg -14.004294 -4.934373 13.848087
RightLeg 0.359095 -0.000000 -0.000000
RightFoot -8.149748 -23.299565 -9.612819
RightToeBase -0.518479 -0.000000 0.000000
3193
root -15.643465 32.210498 -5.084983 11.672988 43.654952 -5.523319
Spine -14.756268 2.046536 16.021912
Head -0.572499 -15.893235 -2.972146
LeftShoulder -11.426731 21.491177 8.007553
LeftArm 27.941664 31.216917 -70.599785
LeftForeArm 17.024156 -0.000000 50.734852
LeftHand -26.992419 0.000000 -2.817251
LeftHandThumb1 -26.253704 0.000000 33.147579
RightShoulder -18.870431 12.478720 -33.404325
RightArm -9.110669 26.570665 44.011681
RightForeArm 30.799215 0.000000 124.095941
RightHand -11.928322 -0.000000 0.826181
RightHandThumb1 -24.326973 -0.000000 -32.862282
LeftUpLeg -21.640685 43.528820 6.094581
LeftLeg 95.466104 -0.000000 -0.000000
LeftFoot 34.036965 23.101026 -24.728226
LeftToeBase 29.187683 -0.000000 -0.000000
RightUpLeg -13.986185 -4.903305 13.840708
RightLeg 0.231893 -0.000000 -0.000000
RightFoot -8.077850 -23.291062 -9.629137
RightToeBase -0.545373 -0.000000 0.000000
